<?xml version="1.0" encoding="UTF-8"?>
<svg version="1.1" xmlns="http://www.w3.org/2000/svg" width="150" height="150">
<path d="M0 0 C49.5 0 99 0 150 0 C150 49.5 150 99 150 150 C100.5 150 51 150 0 150 C0 100.5 0 51 0 0 Z " fill="#FDFCFC" transform="translate(0,0)"/>
<path d="M0 0 C6.3925464 3.32673333 12.60007348 6.897228 18.6875 10.75 C19.62360107 11.33285767 19.62360107 11.33285767 20.57861328 11.92749023 C22.08938532 12.89628601 23.55038267 13.94188516 25 15 C25 15.66 25 16.32 25 17 C22.81274414 18.60400391 22.81274414 18.60400391 19.78515625 20.4765625 C18.70685547 21.146875 17.62855469 21.8171875 16.51757812 22.5078125 C15.95111572 22.85489258 15.38465332 23.20197266 14.80102539 23.55957031 C13.06910136 24.62095445 11.34366081 25.69226197 9.61914062 26.765625 C1.15622738 32 1.15622738 32 0 32 C-0.3671875 28.77734375 -0.3671875 28.77734375 0 25 C2.5546875 22.56640625 2.5546875 22.56640625 5.875 20.5625 C7.51082031 19.54349609 7.51082031 19.54349609 9.1796875 18.50390625 C12 17 12 17 14 17 C11.48010552 14.14469295 8.61631346 12.59840806 5.3125 10.75 C2.34375 8.91796875 2.34375 8.91796875 0 7 C-0.6875 3.0625 -0.6875 3.0625 0 0 Z " fill="#C5193E" transform="translate(21,60)"/>
<path d="M0 0 C0.66 0 1.32 0 2 0 C2 6.93 2 13.86 2 21 C-8 21 -8 21 -10.1875 18.9375 C-11.22876795 15.17291586 -11.04414213 12.75891168 -10 9 C-8.3125 7.0625 -8.3125 7.0625 -6 6 C-2.75 5.8125 -2.75 5.8125 0 6 C0 4.02 0 2.04 0 0 Z " fill="#CA193F" transform="translate(103,78)"/>
<path d="M0 0 C1.8125 1.1875 1.8125 1.1875 3 3 C3 4.65 3 6.3 3 8 C-0.3 8 -3.6 8 -7 8 C-6.34 9.32 -5.68 10.64 -5 12 C-1.43793339 12.81870185 -1.43793339 12.81870185 2 13 C2 13.66 2 14.32 2 15 C-5.28358209 15.35820896 -5.28358209 15.35820896 -8 14 C-9.63017266 10.73965469 -9.63594926 7.51185313 -9 4 C-6.50225714 0.2996402 -4.42992476 -0.7951147 0 0 Z " fill="#C92044" transform="translate(88,84)"/>
<path d="M0 0 C0 0.66 0 1.32 0 2 C-0.61488281 2.03738281 -1.22976562 2.07476562 -1.86328125 2.11328125 C-3.07564453 2.21189453 -3.07564453 2.21189453 -4.3125 2.3125 C-5.11300781 2.37050781 -5.91351563 2.42851563 -6.73828125 2.48828125 C-9.43851458 3.09921487 -10.3889478 3.76498472 -12 6 C-12.4714296 7.94457312 -12.4714296 7.94457312 -12.375 10 C-12.38273437 10.680625 -12.39046875 11.36125 -12.3984375 12.0625 C-11.87336581 14.61578978 -11.09612135 15.46839699 -9 17 C-6.72838745 17.57323807 -6.72838745 17.57323807 -4.3125 17.6875 C-3.50425781 17.75324219 -2.69601563 17.81898437 -1.86328125 17.88671875 C-1.24839844 17.92410156 -0.63351563 17.96148437 0 18 C0 18.66 0 19.32 0 20 C-4.99183607 20.43617985 -8.73773073 20.75736156 -13.125 18.125 C-15.7769173 13.70513784 -15.98876625 10.02622846 -15 5 C-11.31137598 -1.1477067 -6.4720221 -0.56551649 0 0 Z " fill="#CA2749" transform="translate(67,79)"/>
<path d="M0 0 C3.63 0 7.26 0 11 0 C11 0.66 11 1.32 11 2 C8.03 2 5.06 2 2 2 C2 4.31 2 6.62 2 9 C4.97 9 7.94 9 11 9 C11 9.66 11 10.32 11 11 C8.03 11 5.06 11 2 11 C2 13.64 2 16.28 2 19 C4.97 19 7.94 19 11 19 C11 19.33 11 19.66 11 20 C7.37 20 3.74 20 0 20 C0 13.4 0 6.8 0 0 Z " fill="#020202" transform="translate(53,53)"/>
<path d="M0 0 C0.66 0 1.32 0 2 0 C2.33 3.63 2.66 7.26 3 11 C4.32 11.33 5.64 11.66 7 12 C8.73956658 10.26043342 8.37190386 7.8063378 8.5625 5.4375 C8.64628906 4.42558594 8.73007813 3.41367187 8.81640625 2.37109375 C8.87699219 1.58863281 8.93757813 0.80617187 9 0 C9.99 0 10.98 0 12 0 C12 4.62 12 9.24 12 14 C10.576875 14.226875 9.15375 14.45375 7.6875 14.6875 C6.88699219 14.81511719 6.08648437 14.94273438 5.26171875 15.07421875 C3 15 3 15 1.21875 13.90625 C-0.53424137 11.1643917 -0.29136902 9.03243949 -0.1875 5.8125 C-0.16042969 4.72582031 -0.13335937 3.63914063 -0.10546875 2.51953125 C-0.07066406 1.68808594 -0.03585938 0.85664062 0 0 Z " fill="#131313" transform="translate(104,59)"/>
<path d="M0 0 C0.02688151 1.64574566 0.04634123 3.29161413 0.0625 4.9375 C0.07410156 5.85402344 0.08570312 6.77054687 0.09765625 7.71484375 C0 10 0 10 -1 11 C-2.99958364 11.04080783 -5.00045254 11.04254356 -7 11 C-8.39935013 8.20129973 -8.25265405 6.09501208 -8 3 C-5.82647043 -0.43188879 -3.82022019 -0.11254331 0 0 Z " fill="#F8EEF0" transform="translate(103,86)"/>
<path d="M0 0 C0.66 0 1.32 0 2 0 C2 1.32 2 2.64 2 4 C3.65 4 5.3 4 7 4 C7 4.66 7 5.32 7 6 C5.35 6 3.7 6 2 6 C2.06000106 7.6260287 2.1487885 9.25101549 2.25 10.875 C2.29640625 11.77992187 2.3428125 12.68484375 2.390625 13.6171875 C2.75611148 16.17110544 2.75611148 16.17110544 5.046875 17.3203125 C5.69140625 17.54460937 6.3359375 17.76890625 7 18 C4.6875 18.6875 4.6875 18.6875 2 19 C0.34375 17.84375 0.34375 17.84375 -1 16 C-1.29296875 13.51953125 -1.29296875 13.51953125 -1.1875 10.8125 C-1.16042969 9.91144531 -1.13335937 9.01039062 -1.10546875 8.08203125 C-1.07066406 7.39496094 -1.03585938 6.70789062 -1 6 C-1.66 6 -2.32 6 -3 6 C-3 5.34 -3 4.68 -3 4 C-2.01 4 -1.02 4 0 4 C0 2.68 0 1.36 0 0 Z " fill="#242424" transform="translate(93,55)"/>
<path d="M0 0 C2.46800047 1.15173355 4.04783565 2.04783565 6 4 C6.99 2.68 7.98 1.36 9 0 C9.99 0.33 10.98 0.66 12 1 C10.68 2.65 9.36 4.3 8 6 C8.28875 6.5775 8.5775 7.155 8.875 7.75 C9.91666667 9.83333333 10.95833333 11.91666667 12 14 C9 14 9 14 6.8125 12 C6.214375 11.34 5.61625 10.68 5 10 C4.319375 10.99 4.319375 10.99 3.625 12 C3.08875 12.66 2.5525 13.32 2 14 C1.34 14 0.68 14 0 14 C0.309375 13.4225 0.61875 12.845 0.9375 12.25 C2.38876429 9.23907016 2.38876429 9.23907016 3 6 C1.64185993 2.78287055 1.64185993 2.78287055 0 0 Z " fill="#191919" transform="translate(68,59)"/>
<path d="M0 0 C1.134375 0.020625 2.26875 0.04125 3.4375 0.0625 C3.1075 0.7225 2.7775 1.3825 2.4375 2.0625 C0.7875 1.7325 -0.8625 1.4025 -2.5625 1.0625 C-2.5625 2.3825 -2.5625 3.7025 -2.5625 5.0625 C-1.593125 5.371875 -0.62375 5.68125 0.375 6 C3.4375 7.0625 3.4375 7.0625 4.4375 8.0625 C4.47813832 9.72867115 4.480221 11.39638095 4.4375 13.0625 C1.67825815 14.86661967 0.54777897 15.0752245 -2.8125 14.6875 C-4.17375 14.378125 -4.17375 14.378125 -5.5625 14.0625 C-5.2325 13.4025 -4.9025 12.7425 -4.5625 12.0625 C-2.5825 12.0625 -0.6025 12.0625 1.4375 12.0625 C1.7675 11.0725 2.0975 10.0825 2.4375 9.0625 C1.48875 8.77375 0.54 8.485 -0.4375 8.1875 C-3.5625 7.0625 -3.5625 7.0625 -5.5625 5.0625 C-4.90400312 0.71642062 -4.57278902 0.08022437 0 0 Z " fill="#1A1A1A" transform="translate(125.5625,58.9375)"/>
<path d="M0 0 C0.66 0 1.32 0 2 0 C2 1.32 2 2.64 2 4 C3.65 4 5.3 4 7 4 C7 4.33 7 4.66 7 5 C5.35 5 3.7 5 2 5 C2.33 8.3 2.66 11.6 3 15 C4.32 15.33 5.64 15.66 7 16 C7 16.66 7 17.32 7 18 C5.02 18 3.04 18 1 18 C-0.32229189 15.35541621 -0.09677194 13.32238699 -0.0625 10.375 C-0.05347656 9.37210938 -0.04445313 8.36921875 -0.03515625 7.3359375 C-0.01775391 6.17964844 -0.01775391 6.17964844 0 5 C-0.66 4.67 -1.32 4.34 -2 4 C-1.34 4 -0.68 4 0 4 C0 2.68 0 1.36 0 0 Z " fill="#C9183E" transform="translate(116,81)"/>
<path d="M0 0 C0.99 0.33 1.98 0.66 3 1 C2.01 2.485 2.01 2.485 1 4 C0.75944532 6.05709596 0.75944532 6.05709596 0.875 8.1875 C0.91625 9.445625 0.9575 10.70375 1 12 C3.31 12 5.62 12 8 12 C6 14 6 14 3.0625 14.4375 C0 14 0 14 -1.9375 11.9375 C-3.29016819 8.19777029 -2.93966501 5.83094197 -2 2 C-1.34 1.34 -0.68 0.68 0 0 Z " fill="#CB3351" transform="translate(95,85)"/>
<path d="M0 0 C2.66666667 0 5.33333333 0 8 0 C8 0.66 8 1.32 8 2 C6.35 2.66 4.7 3.32 3 4 C2.67 7.3 2.34 10.6 2 14 C1.34 14 0.68 14 0 14 C0 9.38 0 4.76 0 0 Z " fill="#C8163C" transform="translate(70,85)"/>
<path d="M0 0 C0.99 0 1.98 0 3 0 C3 4.62 3 9.24 3 14 C2.34 14 1.68 14 1 14 C-0.38226016 11.23547967 -0.09525387 8.9538637 -0.0625 5.875 C-0.05347656 4.77929688 -0.04445313 3.68359375 -0.03515625 2.5546875 C-0.02355469 1.71164063 -0.01195313 0.86859375 0 0 Z " fill="#1E1E1E" transform="translate(113,59)"/>
<path d="M0 0 C1.65 0.33 3.3 0.66 5 1 C5.33 2.32 5.66 3.64 6 5 C3.36 5 0.72 5 -2 5 C-1.34 3.35 -0.68 1.7 0 0 Z " fill="#EED2D6" transform="translate(83,86)"/>
<path d="M0 0 C0.90105469 0.01804687 1.80210938 0.03609375 2.73046875 0.0546875 C3.41753906 0.07789062 4.10460937 0.10109375 4.8125 0.125 C4.8125 0.785 4.8125 1.445 4.8125 2.125 C4.20921875 2.17398438 3.6059375 2.22296875 2.984375 2.2734375 C1.78554688 2.38558594 1.78554688 2.38558594 0.5625 2.5 C-0.62085938 2.60441406 -0.62085938 2.60441406 -1.828125 2.7109375 C-4.273377 3.14007113 -6.03586903 3.91100638 -8.1875 5.125 C-8.1875 4.135 -8.1875 3.145 -8.1875 2.125 C-4.87379 -0.08414 -3.8428979 -0.09981553 0 0 Z " fill="#CB3453" transform="translate(62.1875,78.875)"/>
<path d="M0 0 C1.8125 1.375 1.8125 1.375 3 3 C3 3.66 3 4.32 3 5 C2.4225 4.67 1.845 4.34 1.25 4 C-1.19883862 2.72924102 -1.19883862 2.72924102 -5 3 C-5.66 3.66 -6.32 4.32 -7 5 C-7 3.68 -7 2.36 -7 1 C-4.45132831 -0.27433584 -2.82594567 -0.27570202 0 0 Z " fill="#CC3C58" transform="translate(88,84)"/>
<path d="M0 0 C1.134375 0.020625 2.26875 0.04125 3.4375 0.0625 C3.1075 0.7225 2.7775 1.3825 2.4375 2.0625 C0.7875 1.7325 -0.8625 1.4025 -2.5625 1.0625 C-2.5625 2.3825 -2.5625 3.7025 -2.5625 5.0625 C-1.9025 5.0625 -1.2425 5.0625 -0.5625 5.0625 C-0.8925 6.0525 -1.2225 7.0425 -1.5625 8.0625 C-2.8825 7.0725 -4.2025 6.0825 -5.5625 5.0625 C-4.43693182 0.07784091 -4.43693182 0.07784091 0 0 Z " fill="#121212" transform="translate(125.5625,58.9375)"/>
</svg>
